<?xml version="1.0" encoding="UTF-8"?>
<svg width="324px" height="239px" viewBox="0 0 324 239" version="1.1" xmlns="http://www.w3.org/2000/svg" xmlns:xlink="http://www.w3.org/1999/xlink">
    <!-- Generator: Sketch 44 (41411) - http://www.bohemiancoding.com/sketch -->
    <title>ombord_logo</title>
    <desc>Created with Sketch.</desc>
    <defs></defs>
    <g id="Page-3" stroke="none" stroke-width="1" fill="none" fill-rule="evenodd">
        <g id="ombord_logo" transform="translate(0.895740, 0.000000)" fill="#000000">
            <path d="M13.4928208,212.868077 C13.4928208,214.838381 13.8649838,216.655412 14.6093209,218.319224 C15.353658,219.983037 16.3606872,221.427905 17.6304388,222.653872 C18.9001904,223.879839 20.3778963,224.832138 22.063601,225.510798 C23.7493057,226.189459 25.5334988,226.528784 27.4162339,226.528784 C29.298969,226.528784 31.0831621,226.189459 32.7688667,225.510798 C34.4545714,224.832138 35.9432233,223.879839 37.2348672,222.653872 C38.526511,221.427905 39.5444862,219.983037 40.2888234,218.319224 C41.0331605,216.655412 41.4053235,214.838381 41.4053235,212.868077 C41.4053235,210.897773 41.0331605,209.080741 40.2888234,207.416929 C39.5444862,205.753117 38.526511,204.308249 37.2348672,203.082282 C35.9432233,201.856315 34.4545714,200.904015 32.7688667,200.225355 C31.0831621,199.546695 29.298969,199.207369 27.4162339,199.207369 C25.5334988,199.207369 23.7493057,199.546695 22.063601,200.225355 C20.3778963,200.904015 18.9001904,201.856315 17.6304388,203.082282 C16.3606872,204.308249 15.353658,205.753117 14.6093209,207.416929 C13.8649838,209.080741 13.4928208,210.897773 13.4928208,212.868077 Z M0.0291430051,212.868077 C0.0291430051,209.190176 0.707793147,205.764087 2.06511379,202.589708 C3.42243443,199.415329 5.30514128,196.645999 7.7132908,194.281634 C10.1214403,191.917269 13.0002304,190.0674 16.3497475,188.731971 C19.6992646,187.396543 23.3880565,186.728839 27.4162339,186.728839 C31.4006267,186.728839 35.0784727,187.396543 38.449882,188.731971 C41.8212913,190.0674 44.7219734,191.917269 47.1520152,194.281634 C49.582057,196.645999 51.4757098,199.415329 52.8330304,202.589708 C54.1903511,205.764087 54.8690012,209.190176 54.8690012,212.868077 C54.8690012,216.545978 54.1903511,219.972066 52.8330304,223.146445 C51.4757098,226.320824 49.582057,229.090155 47.1520152,231.45452 C44.7219734,233.818885 41.8212913,235.668754 38.449882,237.004182 C35.0784727,238.33961 31.4006267,239.007314 27.4162339,239.007314 C23.3880565,239.007314 19.6992646,238.33961 16.3497475,237.004182 C13.0002304,235.668754 10.1214403,233.818885 7.7132908,231.45452 C5.30514128,229.090155 3.42243443,226.320824 2.06511379,223.146445 C0.707793147,219.972066 0.0291430051,216.545978 0.0291430051,212.868077 Z M60.975584,237.628108 L69.382173,188.108045 L82.1234095,188.108045 L92.0405575,214.509989 L101.892029,188.108045 L114.633266,188.108045 L123.039855,237.628108 L110.232942,237.628108 L105.963971,209.124517 L94.2735578,237.628108 L89.1507926,237.628108 L78.051468,209.124517 L73.782497,237.628108 L60.975584,237.628108 Z M143.252027,227.645284 L146.076116,227.645284 C149.316171,227.645284 151.636717,227.229337 153.037822,226.397431 C154.438927,225.565525 155.139469,224.230116 155.139469,222.391166 C155.139469,220.552215 154.438927,219.216807 153.037822,218.384901 C151.636717,217.552995 149.316171,217.137048 146.076116,217.137048 L143.252027,217.137048 L143.252027,227.645284 Z M143.252027,207.548282 L145.61638,207.548282 C149.644558,207.548282 151.658616,205.95017 151.658616,202.753899 C151.658616,199.557628 149.644558,197.959516 145.61638,197.959516 L143.252027,197.959516 L143.252027,207.548282 Z M130.379438,188.108045 L149.556969,188.108045 C154.110561,188.108045 157.569487,189.202642 159.933852,191.391869 C162.298217,193.581096 163.480382,196.733535 163.480382,200.849281 C163.480382,203.345 163.031597,205.413788 162.134014,207.055708 C161.236431,208.697629 159.868185,210.087767 158.029234,211.226165 C159.868185,211.576441 161.433459,212.112794 162.725102,212.835238 C164.016746,213.557683 165.067559,214.444307 165.877573,215.495136 C166.687587,216.545965 167.267724,217.728129 167.618,219.041666 C167.968276,220.355202 168.143412,221.756286 168.143412,223.24496 C168.143412,225.56554 167.738411,227.623383 166.928397,229.418549 C166.118383,231.213715 164.980002,232.724259 163.51322,233.950226 C162.046438,235.176193 160.262245,236.095654 158.160587,236.708638 C156.05893,237.321621 153.6946,237.628108 151.067528,237.628108 L130.379438,237.628108 L130.379438,188.108045 Z M185.859878,212.868077 C185.859878,214.838381 186.232041,216.655412 186.976378,218.319224 C187.720715,219.983037 188.727745,221.427905 189.997496,222.653872 C191.267248,223.879839 192.744954,224.832138 194.430658,225.510798 C196.116363,226.189459 197.900556,226.528784 199.783291,226.528784 C201.666026,226.528784 203.450219,226.189459 205.135924,225.510798 C206.821629,224.832138 208.310281,223.879839 209.601925,222.653872 C210.893568,221.427905 211.911544,219.983037 212.655881,218.319224 C213.400218,216.655412 213.772381,214.838381 213.772381,212.868077 C213.772381,210.897773 213.400218,209.080741 212.655881,207.416929 C211.911544,205.753117 210.893568,204.308249 209.601925,203.082282 C208.310281,201.856315 206.821629,200.904015 205.135924,200.225355 C203.450219,199.546695 201.666026,199.207369 199.783291,199.207369 C197.900556,199.207369 196.116363,199.546695 194.430658,200.225355 C192.744954,200.904015 191.267248,201.856315 189.997496,203.082282 C188.727745,204.308249 187.720715,205.753117 186.976378,207.416929 C186.232041,209.080741 185.859878,210.897773 185.859878,212.868077 Z M172.3962,212.868077 C172.3962,209.190176 173.07485,205.764087 174.432171,202.589708 C175.789492,199.415329 177.672199,196.645999 180.080348,194.281634 C182.488498,191.917269 185.367288,190.0674 188.716805,188.731971 C192.066322,187.396543 195.755114,186.728839 199.783291,186.728839 C203.767684,186.728839 207.44553,187.396543 210.816939,188.731971 C214.188349,190.0674 217.089031,191.917269 219.519073,194.281634 C221.949114,196.645999 223.842767,199.415329 225.200088,202.589708 C226.557408,205.764087 227.236059,209.190176 227.236059,212.868077 C227.236059,216.545978 226.557408,219.972066 225.200088,223.146445 C223.842767,226.320824 221.949114,229.090155 219.519073,231.45452 C217.089031,233.818885 214.188349,235.668754 210.816939,237.004182 C207.44553,238.33961 203.767684,239.007314 199.783291,239.007314 C195.755114,239.007314 192.066322,238.33961 188.716805,237.004182 C185.367288,235.668754 182.488498,233.818885 180.080348,231.45452 C177.672199,229.090155 175.789492,226.320824 174.432171,223.146445 C173.07485,219.972066 172.3962,216.545978 172.3962,212.868077 Z M186.976378,173.068132 L212.984263,173.068132 L212.984263,180.358221 L186.976378,180.358221 L186.976378,173.068132 Z M246.448231,210.241018 L248.878261,210.241018 C251.417764,210.241018 253.366146,209.715611 254.723467,208.664782 C256.080788,207.613953 256.759438,206.103409 256.759438,204.133105 C256.759438,202.162801 256.080788,200.652257 254.723467,199.601428 C253.366146,198.550599 251.417764,198.025193 248.878261,198.025193 L246.448231,198.025193 L246.448231,210.241018 Z M274.754793,237.628108 L258.729732,237.628108 L246.448231,218.58193 L246.448231,237.628108 L233.575642,237.628108 L233.575642,188.108045 L253.606967,188.108045 C256.365393,188.108045 258.773506,188.513046 260.831379,189.32306 C262.889253,190.133074 264.585878,191.238617 265.921306,192.639722 C267.256735,194.040827 268.263764,195.660831 268.942424,197.499781 C269.621085,199.338732 269.96041,201.309006 269.96041,203.410664 C269.96041,207.176134 269.051894,210.23006 267.234836,212.572533 C265.417778,214.915005 262.736015,216.502171 259.189468,217.334077 L274.754793,237.628108 Z M292.208553,226.725813 L295.163994,226.725813 C297.397006,226.725813 299.389172,226.375542 301.140554,225.67499 C302.891935,224.974437 304.369641,224.011192 305.573716,222.785225 C306.777791,221.559258 307.697252,220.103444 308.332128,218.417739 C308.967004,216.732034 309.284437,214.882165 309.284437,212.868077 C309.284437,210.897773 308.956058,209.05885 308.29929,207.351253 C307.642522,205.643656 306.712114,204.176896 305.50804,202.950929 C304.303965,201.724962 302.826259,200.761716 301.074877,200.061164 C299.323496,199.360611 297.353221,199.01034 295.163994,199.01034 L292.208553,199.01034 L292.208553,226.725813 Z M279.335963,188.108045 L298.382142,188.108045 C301.753551,188.108045 304.916936,188.786695 307.872393,190.144016 C310.827849,191.501336 313.411098,193.307421 315.622217,195.562325 C317.833336,197.817229 319.573745,200.444261 320.843497,203.443502 C322.113248,206.442743 322.748115,209.584236 322.748115,212.868077 C322.748115,216.108132 322.124194,219.227734 320.876335,222.226975 C319.628476,225.226215 317.899013,227.864194 315.687893,230.14099 C313.476774,232.417786 310.893525,234.234817 307.938069,235.592138 C304.982613,236.949458 301.797336,237.628108 298.382142,237.628108 L279.335963,237.628108 L279.335963,188.108045 Z" id="ombord"></path>
            <g id="logo" transform="translate(92.000000, 0.000000)" fill-rule="nonzero">
                <path d="M71.3911946,9.42602261 L8.23161205,82.5101761 L71.3911946,145.669759 L134.550777,82.5101761 L71.3911946,9.42602261 Z M71.3911946,0.249825285 L142.738248,82.8079866 L71.3911946,154.15504 L0.0441411674,82.8079866 L71.3911946,0.249825285 Z" id="Rectangle-3"></path>
                <path d="M15.1657978,45.7858804 L71.5932777,102.21336 L128.020757,45.7858804 L15.1657978,45.7858804 Z M142.506039,39.7858804 L71.5932777,110.698642 L0.680516473,39.7858804 L142.506039,39.7858804 Z" id="Rectangle-3"></path>
                <polygon id="Line-Copy-2" points="136.743457 39.8052075 136.743457 82.8052075 142.743457 82.8052075 142.743457 39.8052075"></polygon>
                <polygon id="Line-Copy-3" points="0.0338001994 39.8052075 0.0338001994 82.8052075 6.0338002 82.8052075 6.0338002 39.8052075"></polygon>
                <polygon id="Line-Copy-4" points="68.3660712 106.148982 68.3660712 149.148982 74.3660712 149.148982 74.3660712 106.148982"></polygon>
            </g>
        </g>
    </g>
</svg>