<?xml version="1.0" encoding="UTF-8"?>
<svg width="89px" height="19px" viewBox="0 0 89 19" version="1.1" xmlns="http://www.w3.org/2000/svg" xmlns:xlink="http://www.w3.org/1999/xlink">
    <!-- Generator: Sketch 44.1 (41455) - http://www.bohemiancoding.com/sketch -->
    <title>Logo</title>
    <desc>Created with Sketch.</desc>
    <defs></defs>
    <g id="Page-1" stroke="none" stroke-width="1" fill="none" fill-rule="evenodd">
        <g id="Home" transform="translate(-89.000000, -136.000000)" fill="#222222">
            <path d="M92.6726207,147.569468 C92.6726207,148.106927 92.7741393,148.602577 92.9771795,149.056431 C93.1802197,149.510286 93.4549171,149.904417 93.8012798,150.238836 C94.1476425,150.573255 94.550731,150.833023 95.0105573,151.018148 C95.4703837,151.203273 95.9570757,151.295834 96.470648,151.295834 C96.9842203,151.295834 97.4709123,151.203273 97.9307387,151.018148 C98.390565,150.833023 98.7966394,150.573255 99.1489739,150.238836 C99.5013083,149.904417 99.7789915,149.510286 99.9820317,149.056431 C100.185072,148.602577 100.286591,148.106927 100.286591,147.569468 C100.286591,147.032008 100.185072,146.536359 99.9820317,146.082504 C99.7789915,145.62865 99.5013083,145.234519 99.1489739,144.900099 C98.7966394,144.56568 98.390565,144.305912 97.9307387,144.120787 C97.4709123,143.935662 96.9842203,143.843101 96.470648,143.843101 C95.9570757,143.843101 95.4703837,143.935662 95.0105573,144.120787 C94.550731,144.305912 94.1476425,144.56568 93.8012798,144.900099 C93.4549171,145.234519 93.1802197,145.62865 92.9771795,146.082504 C92.7741393,146.536359 92.6726207,147.032008 92.6726207,147.569468 Z M89,147.569468 C89,146.56621 89.1851221,145.631642 89.5553719,144.765735 C89.9256217,143.899828 90.4391863,143.144411 91.0960811,142.49946 C91.7529759,141.854508 92.538252,141.349901 93.4519329,140.985623 C94.3656139,140.621345 95.3718422,140.439209 96.470648,140.439209 C97.5575103,140.439209 98.5607528,140.621345 99.4804055,140.985623 C100.400058,141.349901 101.191306,141.854508 101.854173,142.49946 C102.517039,143.144411 103.03359,143.899828 103.403839,144.765735 C103.774089,145.631642 103.959211,146.56621 103.959211,147.569468 C103.959211,148.572725 103.774089,149.507293 103.403839,150.3732 C103.03359,151.239107 102.517039,151.994525 101.854173,152.639476 C101.191306,153.284427 100.400058,153.789034 99.4804055,154.153312 C98.5607528,154.51759 97.5575103,154.699726 96.470648,154.699726 C95.3718422,154.699726 94.3656139,154.51759 93.4519329,154.153312 C92.538252,153.789034 91.7529759,153.284427 91.0960811,152.639476 C90.4391863,151.994525 89.9256217,151.239107 89.5553719,150.3732 C89.1851221,149.507293 89,148.572725 89,147.569468 Z M105.624964,154.323507 L107.918113,140.815429 L111.393666,140.815429 L114.098865,148.017348 L116.786148,140.815429 L120.261702,140.815429 L122.55485,154.323507 L119.061382,154.323507 L117.896892,146.5483 L114.707982,154.323507 L113.310595,154.323507 L110.282922,146.5483 L109.118433,154.323507 L105.624964,154.323507 Z M128.068325,151.600393 L128.838679,151.600393 C129.722501,151.600393 130.355499,151.486931 130.737693,151.260004 C131.119886,151.033076 131.31098,150.668804 131.31098,150.167175 C131.31098,149.665546 131.119886,149.301274 130.737693,149.074346 C130.355499,148.847419 129.722501,148.733957 128.838679,148.733957 L128.068325,148.733957 L128.068325,151.600393 Z M128.068325,146.118335 L128.713273,146.118335 C129.812078,146.118335 130.361473,145.682402 130.361473,144.810523 C130.361473,143.938645 129.812078,143.502712 128.713273,143.502712 L128.068325,143.502712 L128.068325,146.118335 Z M124.556941,140.815429 L129.788186,140.815429 C131.030314,140.815429 131.97384,141.114013 132.618791,141.71119 C133.263742,142.308367 133.586213,143.168289 133.586213,144.290982 C133.586213,144.971764 133.463794,145.536088 133.218951,145.98397 C132.974109,146.431853 132.600878,146.811055 132.09925,147.121587 C132.600878,147.217135 133.027854,147.363442 133.380188,147.56051 C133.732523,147.757578 134.019163,147.999432 134.240119,148.286077 C134.461074,148.572722 134.619324,148.895192 134.714872,149.253499 C134.810421,149.611805 134.858194,149.993992 134.858194,150.400073 C134.858194,151.033081 134.747718,151.594419 134.526762,152.084104 C134.305807,152.573789 133.995279,152.985835 133.595171,153.320254 C133.195062,153.654673 132.70837,153.905484 132.13508,154.072694 C131.56179,154.239903 130.916849,154.323507 130.200236,154.323507 L124.556941,154.323507 L124.556941,140.815429 Z M139.69089,147.569468 C139.69089,148.106927 139.792409,148.602577 139.995449,149.056431 C140.198489,149.510286 140.473186,149.904417 140.819549,150.238836 C141.165912,150.573255 141.569,150.833023 142.028827,151.018148 C142.488653,151.203273 142.975345,151.295834 143.488917,151.295834 C144.00249,151.295834 144.489182,151.203273 144.949008,151.018148 C145.408834,150.833023 145.814909,150.573255 146.167243,150.238836 C146.519578,149.904417 146.797261,149.510286 147.000301,149.056431 C147.203341,148.602577 147.30486,148.106927 147.30486,147.569468 C147.30486,147.032008 147.203341,146.536359 147.000301,146.082504 C146.797261,145.62865 146.519578,145.234519 146.167243,144.900099 C145.814909,144.56568 145.408834,144.305912 144.949008,144.120787 C144.489182,143.935662 144.00249,143.843101 143.488917,143.843101 C142.975345,143.843101 142.488653,143.935662 142.028827,144.120787 C141.569,144.305912 141.165912,144.56568 140.819549,144.900099 C140.473186,145.234519 140.198489,145.62865 139.995449,146.082504 C139.792409,146.536359 139.69089,147.032008 139.69089,147.569468 Z M136.018269,147.569468 C136.018269,146.56621 136.203391,145.631642 136.573641,144.765735 C136.943891,143.899828 137.457456,143.144411 138.11435,142.49946 C138.771245,141.854508 139.556521,141.349901 140.470202,140.985623 C141.383883,140.621345 142.390111,140.439209 143.488917,140.439209 C144.57578,140.439209 145.579022,140.621345 146.498675,140.985623 C147.418327,141.349901 148.209575,141.854508 148.872442,142.49946 C149.535308,143.144411 150.051859,143.899828 150.422109,144.765735 C150.792358,145.631642 150.977481,146.56621 150.977481,147.569468 C150.977481,148.572725 150.792358,149.507293 150.422109,150.3732 C150.051859,151.239107 149.535308,151.994525 148.872442,152.639476 C148.209575,153.284427 147.418327,153.789034 146.498675,154.153312 C145.579022,154.51759 144.57578,154.699726 143.488917,154.699726 C142.390111,154.699726 141.383883,154.51759 140.470202,154.153312 C139.556521,153.789034 138.771245,153.284427 138.11435,152.639476 C137.457456,151.994525 136.943891,151.239107 136.573641,150.3732 C136.203391,149.507293 136.018269,148.572725 136.018269,147.569468 Z M139.995449,136.712842 L147.089877,136.712842 L147.089877,138.701432 L139.995449,138.701432 L139.995449,136.712842 Z M156.218175,146.852859 L156.881038,146.852859 C157.573764,146.852859 158.105243,146.709538 158.475493,146.422893 C158.845743,146.136248 159.030865,145.724202 159.030865,145.186743 C159.030865,144.649284 158.845743,144.237238 158.475493,143.950593 C158.105243,143.663948 157.573764,143.520627 156.881038,143.520627 L156.218175,143.520627 L156.218175,146.852859 Z M163.939636,154.323507 L159.568322,154.323507 L156.218175,149.128092 L156.218175,154.323507 L152.706791,154.323507 L152.706791,140.815429 L158.170934,140.815429 C158.923378,140.815429 159.580262,140.925905 160.141609,141.14686 C160.702955,141.367816 161.165761,141.669386 161.530039,142.051579 C161.894317,142.433772 162.169014,142.875677 162.354139,143.377305 C162.539264,143.878934 162.631825,144.416386 162.631825,144.989676 C162.631825,146.01682 162.384,146.84987 161.888343,147.488849 C161.392686,148.127829 160.661155,148.560776 159.693728,148.787703 L163.939636,154.323507 Z M168.700671,151.34958 L169.506856,151.34958 C170.115977,151.34958 170.6594,151.254033 171.137142,151.062936 C171.614883,150.871839 172.017972,150.609086 172.346419,150.274666 C172.674867,149.940247 172.925677,149.54313 173.098859,149.083304 C173.27204,148.623478 173.358629,148.118871 173.358629,147.569468 C173.358629,147.032008 173.269054,146.530387 173.089901,146.064589 C172.910748,145.598791 172.656951,145.198688 172.328504,144.864269 C172.000057,144.52985 171.596968,144.267096 171.119226,144.075999 C170.641485,143.884903 170.104033,143.789356 169.506856,143.789356 L168.700671,143.789356 L168.700671,151.34958 Z M165.189288,140.815429 L170.384702,140.815429 C171.304355,140.815429 172.167263,141.000551 172.973452,141.3708 C173.779641,141.74105 174.484299,142.233714 175.087448,142.848806 C175.690597,143.463899 176.165346,144.180501 176.511709,144.998633 C176.858071,145.816766 177.03125,146.673702 177.03125,147.569468 C177.03125,148.45329 176.861057,149.304254 176.520666,150.122387 C176.180275,150.94052 175.708512,151.660107 175.105364,152.281171 C174.502215,152.902235 173.797556,153.397885 172.991367,153.768135 C172.185178,154.138385 171.316299,154.323507 170.384702,154.323507 L165.189288,154.323507 L165.189288,140.815429 Z" id="Logo"></path>
        </g>
    </g>
</svg>